<svg width="48" height="48" viewBox="0 0 48 48" fill="none" xmlns="http://www.w3.org/2000/svg">
<mask id="path-1-inside-1_431_13608" fill="white">
<path d="M0 24C0 10.7452 10.7452 0 24 0C37.2548 0 48 10.7452 48 24C48 37.2548 37.2548 48 24 48C10.7452 48 0 37.2548 0 24Z"/>
</mask>
<path d="M0 24M48 24M48 24M0 24M24 0M48 24M24 48M0 24M24 48V46C11.8497 46 2 36.1503 2 24H0H-2C-2 38.3594 9.6406 50 24 50V48ZM48 24H46C46 36.1503 36.1503 46 24 46V48V50C38.3594 50 50 38.3594 50 24H48ZM24 0V2C36.1503 2 46 11.8497 46 24H48H50C50 9.6406 38.3594 -2 24 -2V0ZM24 0V-2C9.6406 -2 -2 9.6406 -2 24H0H2C2 11.8497 11.8497 2 24 2V0Z" fill="#99A1AF" mask="url(#path-1-inside-1_431_13608)"/>
<g clip-path="url(#clip0_431_13608)">
<path d="M32.25 13.5C31.0074 13.5 30 14.5074 30 15.75C30 16.9926 31.0074 18 32.25 18C33.4926 18 34.5 16.9926 34.5 15.75C34.5 14.5074 33.4926 13.5 32.25 13.5ZM28.5 15.75C28.5 13.6789 30.1789 12 32.25 12C34.3211 12 36 13.6789 36 15.75C36 17.8211 34.3211 19.5 32.25 19.5C31.1116 19.5 30.0917 18.9927 29.4039 18.1919L19.3275 22.8723C19.4396 23.2282 19.5 23.6071 19.5 24C19.5 24.3929 19.4396 24.7718 19.3275 25.1277L29.4039 29.8081C30.0917 29.0073 31.1116 28.5 32.25 28.5C34.3211 28.5 36 30.1789 36 32.25C36 34.3211 34.3211 36 32.25 36C30.1789 36 28.5 34.3211 28.5 32.25C28.5 31.8571 28.5604 31.4782 28.6725 31.1223L18.5961 26.4419C17.9083 27.2427 16.8884 27.75 15.75 27.75C13.6789 27.75 12 26.0711 12 24C12 21.9289 13.6789 20.25 15.75 20.25C16.8884 20.25 17.9083 20.7573 18.5961 21.5581L28.6725 16.8777C28.5604 16.5218 28.5 16.1429 28.5 15.75ZM15.75 21.75C14.5074 21.75 13.5 22.7574 13.5 24C13.5 25.2426 14.5074 26.25 15.75 26.25C16.9926 26.25 18 25.2426 18 24C18 22.7574 16.9926 21.75 15.75 21.75ZM32.25 30C31.0074 30 30 31.0074 30 32.25C30 33.4926 31.0074 34.5 32.25 34.5C33.4926 34.5 34.5 33.4926 34.5 32.25C34.5 31.0074 33.4926 30 32.25 30Z" fill="white"/>
</g>
<defs>
<clipPath id="clip0_431_13608">
<rect width="24" height="24" fill="white" transform="translate(12 12)"/>
</clipPath>
</defs>
</svg>
