<svg xmlns="http://www.w3.org/2000/svg" width="400" height="400" viewBox="0 0 400 400" fill="none">
  <path d="M261.151 122.778C293.994 145.092 313.385 177.631 315.001 212.022C316.617 246.414 300.495 282.71 270.479 306.924C240.625 331.139 196.878 343.272 157.885 335.969C118.73 328.827 84.33 302.076 66.7 266.107C49.07 230.138 48.3 184.772 66.7 148.804C85.1 112.835 122.539 86.246 166.124 79.104C209.547 72.123 258.878 84.257 291.498 106.409C303.08 114.361 290.844 104.597 273.868 110.768C257.053 116.777 235.219 138.942 259.535 147.054C279.332 153.53 289.073 138.942 291.498 134.92C295.449 128.101 302.079 116.777 288.588 104.597C277.495 94.833 289.073 104.597 299.006 114.361C308.938 124.125 319.599 133.889 260.997 104.597C202.395 75.3048 74.1211 41.9243 88.9073 71.216C103.693 100.508 260.997 193.016 261.151 193.016C261.306 193.016 218.447 159.636 207.354 148.804C196.262 137.971 216.999 149.873 245.152 174.087C273.305 198.301 309.674 233.608 297.359 246.676C285.045 259.744 223.843 251.048 230.537 228.518C232.891 219.821 210.025 246.676 177.216 260.812C144.406 274.948 101.784 276.016 86.3522 247.744C70.9202 219.473 82.7787 161.773 101.784 136.49C116.142 117.498 137.558 113.063 117.913 124.821C98.2683 136.578 37.3696 163.909 55.9172 183.657C74.4648 203.404 175.446 222.082 187.759 214.453C200.073 206.823 134.958 181.02 148.648 177.631C162.339 174.243 255.044 192.152 266.75 197.925C278.456 203.699 290.844 209.473 266.75 214.453C254.263 216.993 223.843 219.473 234.936 217.337C246.028 215.2 298.206 209.473 303.16 214.453C308.113 219.432 266.75 233.608 269.66 229.586C272.57 225.565 318.79 214.453 314.368 239.38C309.947 264.306 249.523 289.938 228.135 295.023C206.747 300.109 198.493 297.16 216.999 295.023C235.505 292.887 278.455 289.938 247.086 315.219C215.718 340.501 114.372 371.88 136.326 335.969C158.281 300.058 302.078 195.788 303.16 203.418C304.242 211.048 248.168 275.481 182.169 292.887C116.17 310.292 39.9158 280.027 46.6102 235.358C53.3046 190.689 143.865 131.9 165.82 145.048C180.608 154.091 158.923 180.483 146.609 177.631C134.295 174.779 134.295 148.804 152.801 140.105C171.307 131.407 208.436 140.105 226.942 165.388C245.448 190.672 245.448 233.628 188.299 251.08C152.955 262.123 56.4563 254.058 75.2032 208.398C93.95 162.739 181.941 124.125 199.993 122.778C214.271 121.73 168.269 141.498 161.575 159.636C154.88 177.774 188.299 182.599 197.856 165.388C207.413 148.177 177.216 122.778 199.993 165.388C222.769 207.999 274.08 251.08 261.151 255.912C248.221 260.745 192.903 254.058 187.759 224.496C182.615 194.934 239.072 214.453 252.771 236.426C266.47 258.399 263.06 284.866 215.84 297.16C168.619 309.453 79.6582 306.924 68.5655 275.481C57.4728 244.039 115.088 207.999 158.126 198.301C201.165 188.604 257.621 205.555 243.989 239.38C230.356 273.205 144.406 302.087 140.396 262.949C136.386 223.81 220.933 202.706 227.587 219.83C234.241 236.953 170.077 255.169 186.6 244.539C203.123 233.909 295.449 195.788 274.08 214.453C252.711 233.118 176.675 263.949 174.306 254.058C171.936 244.166 242.16 214.453 261.151 212.022C280.141 209.591 328.144 219.83 303.16 242.129C278.175 264.429 195.219 289.249 175.446 290.75C155.673 292.251 121.217 289.249 170.077 284.866C218.937 280.483 350.099 259.744 352.468 239.38C354.838 219.015 333.088 203.418 288.588 222.082C244.089 240.747 178.298 290.75 142.766 293.577C107.234 296.404 51.3991 284.866 86.3522 262.949C121.305 241.031 245.448 189.277 245.448 213.384C245.448 237.491 162.934 295.023 158.126 284.866C153.318 274.709 225.683 222.082 242.16 236.426C258.636 250.77 209.083 290.75 187.759 290.75C166.434 290.75 142.766 267.175 186.6 242.129C230.433 217.083 327.559 193.016 332.695 212.022C337.831 231.028 287.356 251.08 263.06 257.979C238.764 264.877 240.041 263.949 270.632 259.744C301.224 255.54 352.468 250.77 330.094 267.175C307.72 283.58 235.505 294.955 235.505 282.71C235.505 270.465 309.674 246.676 329.554 257.979C349.433 269.282 339.192 290.75 297.359 304.788C255.525 318.826 185.523 325.518 171.178 308.809C156.833 292.1 196.262 282.71 230.537 282.71C264.813 282.71 294.402 289.249 269.66 304.788C244.917 320.326 175.446 331.139 150.464 314.15C125.482 297.16 153.318 282.71 207.354 282.71C261.389 282.71 343.452 293.577 330.094 313.082C316.736 332.586 216.999 348.213 171.178 344.667C125.358 341.12 133.867 325.518 187.759 315.219C241.65 304.92 332.695 304.788 330.094 320.326C327.493 335.865 226.95 348.213 175.446 344.667C123.942 341.12 121.305 325.518 187.759 328.068C254.213 330.617 359.163 348.213 338.138 363.182C317.112 378.151 187.759 384.582 162.339 377.942C136.918 371.302 220.933 363.182 261.151 363.182C301.369 363.182 327.559 364.25 313.791 371.88C300.024 379.509 221.473 381.645 221.473 376.874C221.473 372.102 300.024 369.744 274.08 377.942C248.136 386.141 121.305 389.358 136.386 378.525C151.467 367.692 274.08 363.182 274.08 371.88" stroke="#ff3e8e" stroke-opacity="0.5" stroke-width="2" stroke-linecap="round"/>
  <path d="M196.262 64.0612C203.433 64.0612 208.28 68.6719 208.28 76.0136C208.28 83.3552 203.433 87.966 196.262 87.966C189.092 87.966 184.245 83.3552 184.245 76.0136C184.245 68.6719 189.092 64.0612 196.262 64.0612ZM196.262 83.6891C200.894 83.6891 203.741 80.5561 203.741 76.0136C203.741 71.4712 200.894 68.3381 196.262 68.3381C191.631 68.3381 188.784 71.4712 188.784 76.0136C188.784 80.5561 191.631 83.6891 196.262 83.6891Z" fill="#333333"/>
  <path d="M77.8408 340.177C85.012 340.177 89.8583 344.788 89.8583 352.129C89.8583 359.471 85.012 364.082 77.8408 364.082C70.6696 364.082 65.8234 359.471 65.8234 352.129C65.8234 344.788 70.6696 340.177 77.8408 340.177ZM77.8408 359.805C82.4731 359.805 85.3196 356.672 85.3196 352.129C85.3196 347.587 82.4731 344.454 77.8408 344.454C73.2085 344.454 70.362 347.587 70.362 352.129C70.362 356.672 73.2085 359.805 77.8408 359.805Z" fill="#333333"/>
  <path d="M329.617 104.708C336.789 104.708 341.635 109.319 341.635 116.66C341.635 124.002 336.789 128.613 329.617 128.613C322.446 128.613 317.6 124.002 317.6 116.66C317.6 109.319 322.446 104.708 329.617 104.708ZM329.617 124.336C334.25 124.336 337.096 121.203 337.096 116.66C337.096 112.118 334.25 108.985 329.617 108.985C324.985 108.985 322.138 112.118 322.138 116.66C322.138 121.203 324.985 124.336 329.617 124.336Z" fill="#333333"/>
  <!-- Text Elements -->
  <text x="200" y="160" text-anchor="middle" font-family="Arial, sans-serif" font-size="24" font-weight="bold" fill="#333333">Coming Soon</text>
  <text x="200" y="190" text-anchor="middle" font-family="Arial, sans-serif" font-size="16" fill="#666666">We're working on exciting content</text>
  
  <!-- K-Pop Elements -->
  <g transform="translate(180, 220)">
    <path d="M20 0C8.954 0 0 8.954 0 20C0 31.046 8.954 40 20 40C31.046 40 40 31.046 40 20C40 8.954 31.046 0 20 0ZM20 36C11.163 36 4 28.837 4 20C4 11.163 11.163 4 20 4C28.837 4 36 11.163 36 20C36 28.837 28.837 36 20 36Z" fill="#ff3e8e" fill-opacity="0.3"/>
    <path d="M20 8C13.373 8 8 13.373 8 20C8 26.627 13.373 32 20 32C26.627 32 32 26.627 32 20C32 13.373 26.627 8 20 8ZM20 28C15.582 28 12 24.418 12 20C12 15.582 15.582 12 20 12C24.418 12 28 15.582 28 20C28 24.418 24.418 28 20 28Z" fill="#ff3e8e" fill-opacity="0.5"/>
    <circle cx="20" cy="20" r="8" fill="#ff3e8e" fill-opacity="0.7"/>
    <circle cx="20" cy="20" r="4" fill="#ff3e8e"/>
  </g>
  
  <!-- Music Notes -->
  <g transform="translate(140, 220)">
    <path d="M15 0 L15 20 C15 23.314 11.866 26 8 26 C4.134 26 1 23.314 1 20 C1 16.686 4.134 14 8 14 C9.858 14 11.543 14.686 12.685 15.756 L12.685 5.171 L21.37 3.342 L21.37 23.829 C21.37 27.143 18.236 30 14.37 30 C10.504 30 7.37 27.314 7.37 24 C7.37 20.686 10.504 18 14.37 18 C16.228 18 17.913 18.686 19.055 19.756 L19.055 0 L15 0 Z" fill="#ff3e8e" fill-opacity="0.6"/>
  </g>
</svg>
