<svg width="12" height="12" viewBox="0 0 12 12" fill="none" xmlns="http://www.w3.org/2000/svg">
<g clip-path="url(#clip0_431_16931)">
<path d="M8.5 7V1" stroke="#99A1AF" stroke-linecap="round" stroke-linejoin="round"/>
<path d="M4.49996 9.06L4.99996 7H2.08496C1.92972 7 1.7766 6.96386 1.63775 6.89443C1.49889 6.825 1.37811 6.7242 1.28496 6.6C1.19181 6.4758 1.12886 6.33163 1.10109 6.17889C1.07332 6.02614 1.08149 5.86904 1.12496 5.72L2.28996 1.72C2.35054 1.51228 2.47686 1.32982 2.64996 1.2C2.82306 1.07018 3.03359 1 3.24996 1H9.99996C10.2652 1 10.5195 1.10536 10.7071 1.29289C10.8946 1.48043 11 1.73478 11 2V6C11 6.26522 10.8946 6.51957 10.7071 6.70711C10.5195 6.89464 10.2652 7 9.99996 7H8.61996C8.43392 7.0001 8.25159 7.05209 8.09348 7.15014C7.93537 7.24819 7.80775 7.38839 7.72496 7.555L5.99996 11C5.76417 10.9971 5.53209 10.9409 5.32106 10.8357C5.11003 10.7305 4.9255 10.5789 4.78126 10.3924C4.63702 10.2059 4.5368 9.98912 4.48809 9.7584C4.43938 9.52768 4.44344 9.28893 4.49996 9.06Z" stroke="#99A1AF" stroke-linecap="round" stroke-linejoin="round"/>
</g>
<defs>
<clipPath id="clip0_431_16931">
<rect width="12" height="12" fill="white"/>
</clipPath>
</defs>
</svg>
