<svg width="65" height="84" viewBox="0 0 65 84" fill="none" xmlns="http://www.w3.org/2000/svg">
<path fill-rule="evenodd" clip-rule="evenodd" d="M25.9101 67.9683C26.2307 68.126 26.5659 68.28 26.8703 68.4668C28.738 74.0636 32.4783 77.3406 37.4732 79.7842C38.0827 80.0869 38.7049 80.3629 39.3381 80.6097C38.628 81.8875 37.5661 82.8641 36.1941 83.272C35.8521 83.3734 35.5034 83.4501 35.1521 83.5016C29.1741 83.7787 22.6958 78.56 22.1123 72.0971C22.0087 70.9452 22.6353 69.4118 23.4214 68.5785C23.8809 68.0961 24.5075 67.8309 25.1526 67.8439C25.4332 67.8463 25.6419 67.8974 25.9101 67.9683ZM33.3032 63.3664C37.0033 67.9497 45.7349 71.6501 51.4341 72.6256C50.93 76.6922 49.8192 79.7019 45.3085 80.0688C40.1685 80.0495 35.2859 77.8835 31.7478 74.0553C30.2567 72.4409 28.0886 69.515 28.1313 67.1238C28.1839 64.2046 30.9 63.2687 33.3032 63.3664ZM45.2015 0.218319C45.2938 0.239762 45.3853 0.264771 45.4755 0.293629C56.1564 4.09946 53.2892 16.6809 47.4527 23.889C45.0742 26.8263 43.5708 28.9508 40.4529 31.2185C48.8411 32.8776 57.4459 36.6277 62.5889 44.0098C65.7606 48.407 66.1754 55.5152 61.5681 59.1842C60.1515 60.2957 57.8825 60.1616 56.3019 60.2136C50.9756 60.3872 41.5895 58.7932 38.4956 53.8527C34.7112 47.81 41.3013 46.4665 45.4963 47.8944C46.3602 48.1881 48.8615 49.102 49.4463 48.7521C49.9783 47.3002 47.4301 46.995 46.5279 46.7031C42.6963 45.4664 35.2316 45.284 36.1882 51.637C36.4903 52.8764 36.7967 53.56 37.3642 54.6933C34.6091 54.8288 31.9255 56.0413 31.9826 59.4524C31.9968 60.2908 32.2907 61.149 32.5287 61.9472C29.5413 62.2528 27.2646 63.3622 26.8102 66.7918C23.3584 65.5593 21.3781 67.981 20.7693 71.3632C0.176731 66.8437 -8.36704 40.5016 10.4104 26.931C12.9329 25.108 16.052 24.1599 18.8261 22.8449C21.5063 21.5743 24.9361 20.9769 27.2643 19.0223C29.427 17.2064 31.6671 14.9226 33.1304 12.4602C35.9979 7.42584 37.6013 -1.51202 45.2015 0.218319ZM38.4456 56.2182C39.803 57.2242 41.032 58.0888 42.5456 58.8604C47.556 61.4157 53.9574 61.9483 59.5453 61.509C61.4094 65.9087 59.4556 69.703 55.0269 70.9053C54.0844 71.1048 52.5907 71.3525 51.5934 71.1954C46.5593 70.4011 41.9751 68.2483 37.693 65.4174C35.5633 64.0083 32.0355 60.8318 33.7279 57.7023C34.4768 56.3182 36.9784 55.8707 38.4456 56.2182ZM48.6025 12.2168C45.6619 13.898 43.0396 14.4586 40.0702 12.6727C38.7628 11.8864 37.8805 13.4687 39.3001 14.3692C41.8165 15.6604 44.5568 16.0329 47.2802 14.9078C48.1019 14.5682 49.535 13.9147 49.4162 12.7559C49.1344 12.3987 49.032 12.3243 48.6025 12.2168ZM42.6152 7.88772C42.3789 7.56407 41.9955 7.41013 41.6129 7.48552C41.0355 7.59917 40.632 8.1928 40.7065 8.81921C40.7811 9.44567 41.3066 9.87388 41.8865 9.78181C42.2706 9.72062 42.6018 9.4394 42.7528 9.04698C42.9035 8.65459 42.8511 8.21137 42.6152 7.88772ZM47.951 8.04893C47.7824 7.44937 47.1987 7.12283 46.6379 7.31501C46.265 7.44298 45.9777 7.77843 45.887 8.19132C45.7964 8.60382 45.9161 9.0295 46.2001 9.3047C46.4844 9.57997 46.8884 9.66137 47.257 9.51744C47.811 9.30103 48.1195 8.64868 47.951 8.04893Z" fill="#2B7FFF" fill-opacity="0.4"/>
</svg>
