<svg width="71" height="84" viewBox="0 0 71 84" fill="none" xmlns="http://www.w3.org/2000/svg">
<g clip-path="url(#clip0_431_18975)">
<path fill-rule="evenodd" clip-rule="evenodd" d="M28.3699 65.8956C28.6526 66.0346 28.9482 66.1704 29.2167 66.3351C30.8637 71.2708 34.1618 74.1605 38.5667 76.3155C39.1044 76.5825 39.6531 76.8264 40.2117 77.0441C39.5855 78.171 38.6484 79.0316 37.4385 79.3913C37.137 79.4807 36.8302 79.5488 36.5205 79.5942C31.2486 79.8387 25.5357 75.2366 25.021 69.5371C24.9295 68.5211 25.4815 67.1682 26.175 66.4332C26.5802 66.0078 27.1332 65.7736 27.7021 65.7852C27.9494 65.7874 28.1335 65.8331 28.3699 65.8956ZM34.8889 61.8377C38.1519 65.8795 45.852 69.1425 50.878 70.0029C50.4335 73.5891 49.4549 76.2434 45.4772 76.567C40.9442 76.55 36.6381 74.6398 33.5178 71.2637C32.2028 69.8399 30.2906 67.2591 30.3285 65.1503C30.3751 62.5761 32.7697 61.7516 34.8889 61.8377ZM45.3827 6.14815C45.4639 6.16704 45.5443 6.1897 45.6237 6.2151C55.0429 9.57138 52.5146 20.6665 47.3675 27.0231C45.27 29.6134 43.9439 31.4874 41.1943 33.4872C48.5916 34.9503 56.1801 38.2564 60.7156 44.7663C63.5129 48.6441 63.8791 54.9139 59.8159 58.1496C58.5666 59.1297 56.5657 59.0109 55.1718 59.0567C50.4748 59.2099 42.1973 57.8047 39.4687 53.4477C36.1309 48.1186 41.9426 46.9339 45.6422 48.1932C46.404 48.4522 48.6096 49.2583 49.1255 48.9499C49.5949 47.6694 47.3484 47.3997 46.5525 47.1422C43.1738 46.0515 36.5907 45.8903 37.4338 51.4925C37.7003 52.5857 37.9706 53.1893 38.4711 54.1888C36.0414 54.3082 33.6739 55.3771 33.7242 58.3853C33.7367 59.1248 33.9964 59.8822 34.2063 60.5862C31.5717 60.8558 29.5635 61.8339 29.1628 64.8586C26.1188 63.7716 24.3723 65.9068 23.8355 68.8896C5.67545 64.9038 -1.85823 41.6735 14.7015 29.7061C16.926 28.0984 19.6762 27.2624 22.1226 26.1027C24.4864 24.9821 27.511 24.4546 29.5643 22.7306C31.4714 21.1293 33.4458 19.1159 34.7362 16.9445C37.2652 12.5049 38.6801 4.62218 45.3827 6.14815ZM39.4248 55.5333C40.6218 56.4204 41.7055 57.183 43.0402 57.8635C47.4587 60.1169 53.1039 60.5868 58.0316 60.1994C59.6755 64.0794 57.9521 67.426 54.0464 68.4862C53.2151 68.6621 51.8979 68.8805 51.0186 68.7419C46.5793 68.0414 42.5371 66.1422 38.7608 63.6458C36.8827 62.4031 33.7717 59.6019 35.2641 56.842C35.9248 55.6216 38.131 55.2267 39.4248 55.5333ZM48.3819 16.73C45.7886 18.2127 43.4756 18.7076 40.857 17.1327C39.704 16.4394 38.9264 17.8336 40.1782 18.6278C42.3973 19.7665 44.8134 20.0956 47.2151 19.1035C47.9397 18.804 49.2034 18.228 49.0987 17.2061C48.8503 16.8912 48.7604 16.8248 48.3819 16.73ZM43.1012 12.9121C42.8928 12.6268 42.5547 12.4913 42.2174 12.5577C41.7084 12.658 41.3526 13.1811 41.418 13.7333C41.4837 14.2858 41.9473 14.6645 42.4588 14.5833C42.7975 14.5293 43.0896 14.2816 43.2228 13.9356C43.3559 13.5894 43.3094 13.1976 43.1012 12.9121ZM47.8073 13.0549C47.6586 12.5261 47.1434 12.2381 46.6488 12.4077C46.3199 12.5206 46.0667 12.8161 45.9868 13.1802C45.9067 13.5441 46.0126 13.9203 46.2632 14.163C46.5139 14.4054 46.8705 14.4769 47.1953 14.35C47.6837 14.1591 47.9557 13.5836 47.8073 13.0549Z" fill="#2B7FFF" fill-opacity="0.4"/>
</g>
<defs>
<clipPath id="clip0_431_18975">
<rect width="57.1291" height="73.3157" fill="white" transform="translate(14.4129) scale(1.00983) rotate(11.2256)"/>
</clipPath>
</defs>
</svg>
