<svg width="65" height="80" viewBox="0 0 65 80" fill="none" xmlns="http://www.w3.org/2000/svg">
<g clip-path="url(#clip0_431_18984)">
<path fill-rule="evenodd" clip-rule="evenodd" d="M32.5334 15.1884C32.224 15.1398 31.9027 15.0982 31.5994 15.0209C28.5823 10.8231 24.6013 9.05282 19.7867 8.30596C19.1979 8.21102 18.6052 8.14129 18.0112 8.09927C18.2733 6.84557 18.9089 5.75276 19.951 5.055C20.2106 4.88137 20.4817 4.72634 20.7622 4.59201C25.6924 2.8066 32.4693 5.49009 34.637 10.7465C35.0233 11.6836 34.8981 13.13 34.4567 14.0316C34.1975 14.5547 33.7418 14.9398 33.1986 15.0965C32.9635 15.1672 32.7758 15.1781 32.5334 15.1884ZM27.5424 20.9597C23.2553 18.0861 14.9874 17.2587 9.96503 17.9233C9.33012 14.3895 9.47746 11.5835 13.1566 10.1044C17.4626 8.78496 22.1106 9.32781 26.066 11.6118C27.7332 12.5753 30.3081 14.4606 30.8935 16.4728C31.608 18.9292 29.5787 20.417 27.5424 20.9597ZM33.9953 76.8936C33.9124 76.8996 33.8289 76.9019 33.7458 76.9012C23.8193 76.4919 22.9492 65.2192 25.9601 57.671C27.1871 54.5951 27.8932 52.4262 29.913 49.7185C22.4627 50.5099 14.2882 49.6089 8.06644 44.7681C4.26955 41.9129 2.07474 36.0716 4.97677 31.8041C5.87327 30.506 7.80691 30.0291 9.11603 29.575C13.5277 28.0456 21.796 26.9402 25.6689 30.2702C30.4063 34.3434 25.2409 37.1808 21.3595 37.076C20.5602 37.0547 18.2298 36.9396 17.8313 37.3844C17.7638 38.737 19.9742 38.3308 20.8052 38.3405C24.3326 38.3799 30.6267 36.5932 28.1759 31.5258C27.6009 30.5671 27.1665 30.074 26.3971 29.2731C28.6675 28.4438 30.5989 26.732 29.6648 23.8925C29.4351 23.1945 28.9664 22.5522 28.5598 21.946C30.98 20.914 32.5966 19.394 32.0855 16.4061C35.2943 16.5406 36.3223 14 35.9527 11.0115C54.3587 9.4425 68.3531 29.266 56.1663 45.501C54.5292 47.6819 52.1651 49.2855 50.1854 51.1068C48.2727 52.8664 45.558 54.2575 44.1178 56.4982C42.78 58.5796 41.4998 61.0718 40.9152 63.5124C39.8237 68.4701 40.8044 76.3663 33.9953 76.8936ZM25.097 28.2782C23.6997 27.7892 22.446 27.3849 20.9789 27.1326C16.1224 26.2964 10.6274 27.5137 6.06578 29.3334C3.36287 26.1361 4.0121 22.4538 7.40563 20.297C8.14252 19.8851 9.32775 19.2889 10.2031 19.1613C14.6219 18.5179 19.0169 19.1289 23.3357 20.385C25.4839 21.0107 29.2613 22.752 28.6584 25.8106C28.3911 27.1631 26.415 28.1877 25.097 28.2782ZM29.7275 65.0332C30.0634 65.0909 30.4175 64.9515 30.6535 64.6685C30.8894 64.3854 30.9707 64.0028 30.8661 63.6677C30.7614 63.3326 30.4874 63.0972 30.1489 63.0517C29.6378 62.9832 29.1357 63.3612 29.0208 63.9019C28.9059 64.4426 29.2205 64.9459 29.7275 65.0332ZM34.2575 66.3285C34.7782 66.3053 35.2188 65.8509 35.2481 65.3057C35.2772 64.7609 34.8848 64.3257 34.3654 64.3269C34.0201 64.3279 33.6872 64.5247 33.4955 64.8414C33.3039 65.1581 33.2828 65.5456 33.4409 65.8541C33.599 66.1625 33.9113 66.3439 34.2575 66.3285ZM34.1319 71.3745C34.9949 72.3955 36.1716 71.3321 35.2478 70.1848C33.5244 68.4041 31.3569 67.3216 28.7805 67.487C28.0031 67.5369 26.6301 67.6752 26.4019 68.6701C26.5349 69.0459 26.5985 69.1367 26.9246 69.347C29.8382 68.7815 32.1722 69.0555 34.1319 71.3745Z" fill="#CFD2D9"/>
</g>
<defs>
<clipPath id="clip0_431_18984">
<rect width="57.1291" height="74.1489" fill="white" transform="translate(64.8122 73.9839) scale(1.00333) rotate(173.974)"/>
</clipPath>
</defs>
</svg>
