<svg width="65" height="83" viewBox="0 0 65 83" fill="none" xmlns="http://www.w3.org/2000/svg">
<path fill-rule="evenodd" clip-rule="evenodd" d="M32.8866 12.6882C32.5346 12.6329 32.1697 12.5855 31.8246 12.4977C28.3901 7.71902 23.8582 5.70351 18.3777 4.85333C17.7075 4.74527 17.0331 4.66695 16.3569 4.61912C16.6553 3.19187 17.3786 1.94821 18.5649 1.15387C18.8604 0.956247 19.1688 0.779538 19.488 0.626648C25.1002 -1.40573 32.815 1.6483 35.2824 7.63186C35.7221 8.69859 35.5784 10.3454 35.0759 11.3718C34.7809 11.967 34.2626 12.4053 33.6444 12.5835C33.3766 12.6641 33.1628 12.6765 32.8866 12.6882ZM27.2064 19.2583C22.3264 15.9869 12.9141 15.0444 7.19699 15.8011C6.47437 11.7788 6.64197 8.58466 10.8293 6.90099C15.731 5.39896 21.0226 6.0166 25.5252 8.61645C27.423 9.71317 30.3535 11.8594 31.0201 14.1499C31.8335 16.9459 29.5243 18.6404 27.2064 19.2583ZM34.551 82.9277C34.4567 82.9345 34.3618 82.9377 34.2671 82.9369C22.9676 82.4711 21.9769 69.6382 25.4043 61.046C26.801 57.5448 27.6048 55.0765 29.9039 51.9943C21.4233 52.8951 12.1187 51.869 5.03654 46.3588C0.71451 43.1087 -1.78412 36.4599 1.51928 31.6022C2.53982 30.1244 4.74106 29.5814 6.23127 29.0644C11.2532 27.3235 20.6647 26.0655 25.0732 29.8562C30.4659 34.4928 24.586 37.7217 20.1677 37.6023C19.2581 37.5781 16.6069 37.4474 16.1524 37.9532C16.0749 39.4937 18.591 39.031 19.537 39.042C23.5523 39.0869 30.717 37.0534 27.9268 31.285C27.2724 30.1936 26.7784 29.6326 25.9026 28.7209C28.4869 27.7769 30.6851 25.8286 29.6219 22.5963C29.3604 21.8018 28.8267 21.0711 28.3639 20.3811C31.119 19.2063 32.9592 17.4759 32.3774 14.0746C36.03 14.2277 37.1997 11.3351 36.779 7.93323C57.7307 6.14719 73.6602 28.7123 59.7879 47.1927C57.9243 49.6753 55.2343 51.501 52.9808 53.5742C50.8037 55.5772 47.7135 57.1604 46.074 59.711C44.5512 62.0802 43.0933 64.9176 42.4278 67.6958C41.1854 73.3392 42.3021 82.3276 34.551 82.9277ZM24.4218 27.5888C22.8313 27.0321 21.405 26.5719 19.735 26.2846C14.2067 25.3326 7.9518 26.7188 2.75919 28.7902C-0.317839 25.1507 0.420602 20.9581 4.28352 18.5029C5.12222 18.0341 6.4716 17.356 7.46801 17.2106C12.498 16.4782 17.5015 17.1737 22.4177 18.6036C24.863 19.3158 29.1625 21.2978 28.4762 24.7793C28.1722 26.3192 25.9222 27.4859 24.4218 27.5888ZM29.6936 69.4264C30.076 69.492 30.4792 69.3336 30.7479 69.0115C31.0164 68.6893 31.1093 68.2535 30.9904 67.872C30.8711 67.4906 30.5585 67.2224 30.1731 67.1707C29.5914 67.0926 29.0201 67.5236 28.8894 68.1391C28.7588 68.7545 29.1165 69.3271 29.6936 69.4264ZM34.8499 70.9018C35.4426 70.8753 35.9434 70.3574 35.9769 69.737C36.0101 69.1166 35.5635 68.6211 34.9721 68.6227C34.579 68.624 34.2002 68.8476 33.9821 69.2083C33.7639 69.5688 33.7404 70.01 33.9205 70.3612C34.1005 70.7122 34.4559 70.9193 34.8499 70.9018ZM34.707 76.6449C35.6893 77.8072 37.0291 76.5966 35.9775 75.2905C34.0157 73.2635 31.5481 72.0311 28.6153 72.2194C27.7304 72.2762 26.1676 72.4343 25.9078 73.5668C26.0591 73.9943 26.1317 74.0976 26.5027 74.3369C29.8194 73.6932 32.4762 74.0051 34.707 76.6449Z" fill="#CFD2D9"/>
</svg>
