<svg xmlns="http://www.w3.org/2000/svg" width="72" height="72" viewBox="0 0 72 72">
    <defs>
        <linearGradient id="a" x1="0%" y1="62.374%" y2="62.374%">
            <stop offset="0%" stop-color="#12BDFD"/>
            <stop offset="100%" stop-color="#9F79F3"/>
        </linearGradient>
    </defs>
    <path fill="url(#a)" fill-rule="evenodd" d="M29.01,57.89c3.17,-2.98 4.75,-6.86 4.75,-11.63c0,-8.1 -4.89,-13.75 -14.68,-16.96c-0.39,-0.13 -1.15,-0.53 -0.85,-1.17c1.3,-2.79 3.26,-5.58 5.91,-8.37c1.36,-1.36 3.52,-3.27 6.51,-5.74c0.63,-0.52 1.6,-1.78 0.8,-3.13l-1.65,-2.08c-0.9,-1 -2.43,-0.64 -3.04,-0.22c-17.17,11.62 -25.75,23.66 -25.75,36.11c0,4.25 1.6,8.2 4.8,11.85c3.28,3.88 7.05,5.82 11.29,5.82c4.77,0 8.74,-1.49 11.91,-4.47zM66.24,57.89c3.17,-2.98 4.75,-6.86 4.76,-11.63c0,-8.1 -4.89,-13.75 -14.68,-16.96c-0.39,-0.13 -1.15,-0.53 -0.85,-1.17c1.3,-2.79 3.26,-5.58 5.91,-8.37c1.35,-1.36 3.52,-3.27 6.51,-5.74c0.63,-0.52 1.6,-1.78 0.8,-3.13l-1.65,-2.08c-0.9,-1 -2.43,-0.64 -3.04,-0.22c-17.17,11.62 -25.75,23.66 -25.75,36.11c0,4.25 1.6,8.2 4.81,11.85c3.28,3.88 7.05,5.82 11.29,5.82c4.77,0 8.74,-1.49 11.91,-4.47z" opacity="1"/>
</svg>
